<?xml version="1.0" encoding="utf-8"?><!-- Uploaded to: SVG Repo, www.svgrepo.com, Generator: SVG Repo
Mixer Tools -->
<svg fill="#000000" width="800px" height="800px" viewBox="0 0 24 24" id="telephone"
  data-name="Flat Color" xmlns="http://www.w3.org/2000/svg" class="icon flat-color">
  <path id="primary"
    d="M14,22H7a2,2,0,0,1-2-2V18a1,1,0,0,1,2,0v2h7V17a1,1,0,0,1,2,0v3A2,2,0,0,1,14,22Z"
    style="fill: rgb(0, 0, 0);"></path>
  <path id="secondary" d="M20,3H9A1,1,0,0,0,8,4V17a1,1,0,0,0,1,1H20a2,2,0,0,0,2-2V5A2,2,0,0,0,20,3Z"
    style="fill: rgb(44, 169, 188);"></path>
  <path id="primary-2" data-name="primary" d="M18,9H14a1,1,0,0,1,0-2h4a1,1,0,0,1,0,2Z"
    style="fill: rgb(0, 0, 0);"></path>
  <rect id="primary-3" data-name="primary" x="2" y="2" width="8" height="17" rx="2"
    style="fill: rgb(0, 0, 0);"></rect>
</svg>